<svg xmlns="http://www.w3.org/2000/svg" width="50" height="50" viewBox="0 0 50 50">
    <g fill="none" fill-rule="evenodd">
        <path d="M0 0h50v50H0z"/>
        <g fill-rule="nonzero">
            <g fill="#85B0E5">
                <path d="M27.114 5.165a.583.583 0 0 0-.495-.117l-15.166 3.5a.583.583 0 0 0-.453.574v19.834c0 .287.21.532.495.576l15.166 2.333a.583.583 0 0 0 .672-.576V5.622a.583.583 0 0 0-.219-.457z"/>
                <path d="M38.417 29.539H26.75a.583.583 0 0 1 0-1.167h11.083V8.54H26.75a.583.583 0 0 1 0-1.167h11.667c.322 0 .583.261.583.584v21a.583.583 0 0 1-.583.583z"/>
            </g>
            <path fill="#FFF" d="M20.917 23.706a.583.583 0 0 1-.56-.423l-1.774-6.204-1.773 6.204a.607.607 0 0 1-1.121 0l-2.333-8.166a.583.583 0 1 1 1.12-.321l1.774 6.203 1.773-6.204a.607.607 0 0 1 1.122 0l1.772 6.204 1.773-6.203a.576.576 0 0 1 .708-.404l.013.004c.31.088.489.41.4.72l-2.333 8.167a.583.583 0 0 1-.561.423z"/>
            <g fill="#85B0E5">
                <path d="M36.083 12.039H26.75a.583.583 0 0 1 0-1.167h9.333a.583.583 0 0 1 0 1.167zM36.083 15.539H26.75a.583.583 0 0 1 0-1.167h9.333a.583.583 0 0 1 0 1.167zM36.083 19.039H26.75a.583.583 0 0 1 0-1.167h9.333a.583.583 0 0 1 0 1.167zM36.083 22.539H26.75a.583.583 0 0 1 0-1.167h9.333a.583.583 0 0 1 0 1.167zM36.083 26.039H26.75a.583.583 0 0 1 0-1.167h9.333a.583.583 0 0 1 0 1.167z"/>
            </g>
        </g>
        <path fill="#4472AA" d="M28.07 33.487V42.7a1 1 0 0 1-1 1h-3.755a1 1 0 0 1-1-1v-9.215H19.68c-.445-.001-.872-.17-1.187-.471a1.558 1.558 0 0 1 0-2.272l5.51-5.271a1.734 1.734 0 0 1 2.376 0l5.515 5.275c.315.301.492.71.492 1.136 0 .888-.753 1.607-1.68 1.606h-2.636z"/>
        <rect width="26" height="4" x="12" y="40" fill="#DEEBFB" rx="2"/>
    </g>
</svg>
