<svg xmlns="http://www.w3.org/2000/svg" xmlns:xlink="http://www.w3.org/1999/xlink" width="100" height="100" viewBox="0 0 100 100">
    <defs>
        <path id="a" d="M0 0h100v100H0z"/>
    </defs>
    <g fill="none" fill-rule="evenodd">
        <mask id="b" fill="#fff">
            <use xlink:href="#a"/>
        </mask>
        <g fill="#B6D0EF" mask="url(#b)">
            <path fill-rule="nonzero" d="M36.01 15.735c13.665-5.574 29.516-2.535 40.153 8.102 14.312 14.312 14.448 37.432.408 51.912l1.713 2.535c15.621-15.62 15.621-40.947 0-56.568C66.392 9.823 48.874 6.985 34.297 13.2l1.714 2.535zm0 0c13.665-5.574 29.516-2.535 40.153 8.102 14.312 14.312 14.448 37.432.408 51.912l1.713 2.535c15.621-15.62 15.621-40.947 0-56.568C66.392 9.823 48.874 6.985 34.297 13.2l1.714 2.535zm27.932 68.549l1.712 2.537c-14.568 6.188-32.06 3.342-43.938-8.537-15.621-15.62-15.621-40.947 0-56.568l1.712 2.537c-14.039 14.48-13.903 37.598.409 51.91 10.624 10.624 26.45 13.669 40.105 8.121zm0 0l1.712 2.537c-14.568 6.188-32.06 3.342-43.938-8.537-15.621-15.62-15.621-40.947 0-56.568l1.712 2.537c-14.039 14.48-13.903 37.598.409 51.91 10.624 10.624 26.45 13.669 40.105 8.121z"/>
            <path d="M74.22 78.684V72.96a1.233 1.233 0 0 1 2.106-.873l5.728 5.725a1.233 1.233 0 0 1-.872 2.106h-5.728a1.233 1.233 0 0 1-1.234-1.234zM23.87 20.14h-5.724a1.233 1.233 0 0 0-.872 2.104l5.724 5.73a1.233 1.233 0 0 0 2.106-.873v-5.728c0-.682-.552-1.234-1.233-1.234z"/>
        </g>
    </g>
</svg>
