<svg xmlns="http://www.w3.org/2000/svg" width="50" height="50" viewBox="0 0 50 50">
    <g fill="none" fill-rule="evenodd">
        <path fill="#85B0E5" d="M16.658 8.98c-.195 5.48-1.892 10.636-8.787 14.442L6 20.791c3.98-1.806 6.678-5.525 7.113-9.027H7.175V8.979h9.483zm7.679 8.047h-2.524v9.55h-3.371V7h3.371v7.222h2.524v2.805z"/>
        <path fill="#4472AA" d="M32.922 18h4.05l9.668 22.224h-5.525l-1.914-4.708h-8.633l-1.852 4.708h-5.399L32.922 18zm1.884 6.466l-2.7 6.906h5.43l-2.73-6.906z"/>
        <path fill="#85B0E5" d="M18.333 37.333V40L23 35.333l-4.667-4.666V33.4C15 33.4 12.667 32.333 11 30c.667 3.333 2.667 6.667 7.333 7.333z"/>
        <path d="M0 0h50v50H0z"/>
    </g>
</svg>
