<svg xmlns="http://www.w3.org/2000/svg" width="50" height="50" viewBox="0 0 50 50">
    <g fill="none" fill-rule="evenodd">
        <path d="M0 0h50v50H0z"/>
        <path fill="#85B0E5" d="M8.111 18C7.5 18 7 18.5 7 19.111v6.667c0 .61.5 1.11 1.111 1.11H41.89c.611 0 1.111-.5 1.111-1.11V19.11C43 18.5 42.5 18 41.889 18H8.11zM10 22.222C10 21 11 20 12.222 20s2.222 1 2.222 2.222-1 2.222-2.222 2.222-2.222-1-2.222-2.222zM8.111 7C7.5 7 7 7.5 7 8.111v6.667c0 .61.5 1.11 1.111 1.11H41.89c.611 0 1.111-.5 1.111-1.11V8.11C43 7.5 42.5 7 41.889 7H8.11zM10 11.222C10 10 11 9 12.222 9s2.222 1 2.222 2.222-1 2.222-2.222 2.222-2.222-1-2.222-2.222z"/>
        <path fill="#4472AA" d="M28.07 33.487V42.7a1 1 0 0 1-1 1h-3.755a1 1 0 0 1-1-1v-9.215H19.68c-.445-.001-.872-.17-1.187-.471a1.558 1.558 0 0 1 0-2.272l5.51-5.271a1.734 1.734 0 0 1 2.376 0l5.515 5.275c.315.301.492.71.492 1.136 0 .888-.753 1.607-1.68 1.606h-2.636z"/>
        <rect width="26" height="4" x="12" y="40" fill="#DEEBFB" rx="2"/>
    </g>
</svg>
