<svg xmlns="http://www.w3.org/2000/svg" width="50" height="50" viewBox="0 0 50 50">
    <g fill="none" fill-rule="evenodd">
        <path fill="#4472AA" d="M37.206 20.267c-.224 6.277-2.167 12.181-10.064 16.54L25 33.795c4.559-2.068 7.648-6.328 8.146-10.338h-6.8v-3.19h10.86zM46 29.484h-2.89V40.42h-3.86V18h3.86v8.27H46v3.214z"/>
        <path fill="#85B0E5" d="M12.413 7h3.125L23 24.152h-4.264l-1.478-3.634h-6.662l-1.43 3.634H5L12.413 7zm1.454 4.99l-2.084 5.33h4.191l-2.107-5.33zM18.333 37.333V40L23 35.333l-4.667-4.666V33.4C15 33.4 12.667 32.333 11 30c.667 3.333 2.667 6.667 7.333 7.333z"/>
        <path d="M0 0h50v50H0z"/>
    </g>
</svg>
