<svg xmlns="http://www.w3.org/2000/svg" xmlns:xlink="http://www.w3.org/1999/xlink" width="100" height="100" viewBox="0 0 100 100">
    <defs>
        <path id="a" d="M0 0h100v100H0z"/>
    </defs>
    <g fill="none" fill-rule="evenodd">
        <mask id="b" fill="#fff">
            <use xlink:href="#a"/>
        </mask>
        <g mask="url(#b)">
            <path stroke="#85B0E5" stroke-width="3" d="M78.485 75.902c13.761-15.11 13.34-38.523-1.261-53.126C66.45 12.003 50.535 8.72 36.583 13.903l41.902 62zM21.515 24.1c-13.761 15.11-13.34 38.523 1.261 53.125 10.76 10.76 26.65 14.048 40.592 8.891L21.514 24.1z" opacity=".6"/>
            <path fill="#B6D0EF" d="M74.22 78.684V72.96a1.233 1.233 0 0 1 2.106-.873l5.728 5.725a1.233 1.233 0 0 1-.872 2.106h-5.728a1.233 1.233 0 0 1-1.234-1.234zM23.87 20.14h-5.724a1.233 1.233 0 0 0-.872 2.104l5.724 5.73a1.233 1.233 0 0 0 2.106-.873v-5.728c0-.682-.552-1.234-1.233-1.234z"/>
        </g>
    </g>
</svg>
